<svg className="w-3 h-4" fill="none" xmlns="http://www.w3.org/2000/svg">
<path fill-rule="evenodd" clip-rule="evenodd" d="M10.0002 7.7353e-09C10.8128 -5.05094e-05 11.606 0.247335 12.2745 0.709236C12.9429 1.17114 13.4548 1.82565 13.7421 2.58567C14.0294 3.34569 14.0784 4.17518 13.8827 4.96375C13.6869 5.75232 13.2556 6.46258 12.6462 7C13.3916 7.65582 13.8664 8.56537 13.9784 9.55183C14.0904 10.5383 13.8315 11.5311 13.2522 12.3373C12.6728 13.1435 11.8143 13.7055 10.8437 13.9139C9.87299 14.1223 8.8595 13.9623 8.00025 13.465V16C8.00021 16.6684 7.83269 17.3261 7.51298 17.9131C7.19328 18.5 6.73159 18.9975 6.17009 19.3601C5.60859 19.7227 4.96519 19.9388 4.29866 19.9886C3.63214 20.0385 2.96375 19.9205 2.35455 19.6456C1.74535 19.3706 1.21478 18.9473 0.811296 18.4144C0.407815 17.8816 0.144293 17.2561 0.0448072 16.5952C-0.0546787 15.9342 0.0130433 15.2589 0.241785 14.6309C0.470527 14.0028 0.852997 13.4421 1.35425 13C0.928668 12.6246 0.587834 12.163 0.354385 11.6457C0.120937 11.1285 0.000218494 10.5675 0.000249611 10C0.000218494 9.43252 0.120937 8.87152 0.354385 8.35428C0.587834 7.83704 0.928668 7.37539 1.35425 7C0.74487 6.46258 0.313602 5.75232 0.117839 4.96375C-0.0779249 4.17518 -0.0289007 3.34569 0.258387 2.58567C0.545675 1.82565 1.0576 1.17114 1.72604 0.709236C2.39449 0.247335 3.18774 -5.05094e-05 4.00025 7.7353e-09H10.0002ZM6.00025 14H4.00025C3.60469 14 3.21801 14.1173 2.88911 14.3371C2.56021 14.5568 2.30387 14.8692 2.15249 15.2346C2.00112 15.6001 1.96151 16.0022 2.03868 16.3902C2.11585 16.7781 2.30633 17.1345 2.58604 17.4142C2.86574 17.6939 3.22211 17.8844 3.61007 17.9616C3.99803 18.0387 4.40016 17.9991 4.76562 17.8478C5.13107 17.6964 5.44343 17.44 5.66319 17.1111C5.88295 16.7822 6.00025 16.3956 6.00025 16V14ZM6.00025 8H4.00025C3.46982 8 2.96111 8.21071 2.58604 8.58579C2.21096 8.96086 2.00025 9.46957 2.00025 10C2.00025 10.5304 2.21096 11.0391 2.58604 11.4142C2.96111 11.7893 3.46982 12 4.00025 12H6.00025V8ZM10.0002 8C9.46982 8 8.96111 8.21071 8.58604 8.58579C8.21096 8.96086 8.00025 9.46957 8.00025 10C8.00025 10.5304 8.21096 11.0391 8.58604 11.4142C8.96111 11.7893 9.46982 12 10.0002 12C10.5307 12 11.0394 11.7893 11.4145 11.4142C11.7895 11.0391 12.0002 10.5304 12.0002 10C12.0002 9.46957 11.7895 8.96086 11.4145 8.58579C11.0394 8.21071 10.5307 8 10.0002 8ZM10.0002 2H8.00025V6H10.0002C10.5192 6.00232 11.0188 5.80281 11.3934 5.44362C11.768 5.08443 11.9883 4.59368 12.0078 4.07506C12.0273 3.55644 11.8444 3.05055 11.4978 2.66428C11.1511 2.27801 10.6679 2.0416 10.1502 2.005L10.0002 2ZM6.00025 2H4.00025C3.46982 2 2.96111 2.21071 2.58604 2.58579C2.21096 2.96086 2.00025 3.46957 2.00025 4C2.00025 4.53043 2.21096 5.03914 2.58604 5.41421C2.96111 5.78929 3.46982 6 4.00025 6H6.00025V2Z" fill="#8200DB"/>
</svg>
